<?xml version="1.0" encoding="utf-8"?>
<!-- Generator: Adobe Illustrator 15.1.0, SVG Export Plug-In  -->
<!DOCTYPE svg PUBLIC "-//W3C//DTD SVG 1.1//EN" "http://www.w3.org/Graphics/SVG/1.1/DTD/svg11.dtd" [
	<!ENTITY ns_flows "http://ns.adobe.com/Flows/1.0/">
]>
<svg version="1.1"
	 xmlns="http://www.w3.org/2000/svg" xmlns:xlink="http://www.w3.org/1999/xlink" xmlns:a="http://ns.adobe.com/AdobeSVGViewerExtensions/3.0/"
	 x="0px" y="0px" width="500px" height="500px" viewBox="-33.729 -34.799 500 500" enable-background="new -33.729 -34.799 500 500"
	 xml:space="preserve">
<defs>
</defs>
<path fill="#010101" d="M46.385,298.56l64.974,3.199l37.956,52.832l-64.974-3.199L46.385,298.56 M41.807,296.068l2.739,3.813
	l37.956,52.832l0.637,0.887l1.09,0.053l64.974,3.199l4.689,0.232l-2.739-3.814l-37.956-52.83l-0.637-0.887l-1.09-0.055
	l-64.974-3.199L41.807,296.068L41.807,296.068z"/>
<path fill="#010101" d="M231.62,25.997l35.901,163.709L161.782,319.74L125.88,156.03L231.62,25.997 M232.825,20.927l-2.962,3.642
	L124.124,154.603l-0.689,0.847l0.234,1.066l35.902,163.708l1.005,4.586l2.962-3.643l105.74-130.033l0.688-0.848l-0.233-1.065
	l-35.902-163.71L232.825,20.927L232.825,20.927z"/>
<polygon fill="#010101" points="169.729,408.113 151.95,356.523 230.535,31.165 232.735,31.696 154.305,356.412 171.869,407.375 "/>
<polygon fill="#010101" points="283.913,120.312 234.196,131.544 232.883,131.841 232.298,133.052 210.128,178.948 207.613,184.159 
	213.256,182.884 262.973,171.65 264.286,171.354 264.871,170.143 287.04,124.246 289.557,119.036 "/>
<polygon fill="#010101" points="421.881,273.692 333.292,245.314 331.696,244.804 330.301,245.733 252.932,297.38 246.936,301.382 
	253.802,303.582 342.391,331.96 343.987,332.472 345.381,331.541 422.75,279.895 428.747,275.892 "/>
<polygon fill="#010101" points="205.478,440.431 202.169,439.367 246.75,300.839 207.119,185.391 124.499,117.104 126.714,114.424 
	210.089,183.336 210.248,183.799 250.413,300.804 "/>
<polygon fill="#010101" points="178.489,153.699 129.277,37.225 128.746,35.968 127.432,35.601 5.652,1.579 0,0 2.284,5.405 
	51.496,121.879 52.027,123.136 53.341,123.503 175.121,157.525 180.773,159.104 "/>
</svg>
