<?xml version="1.0" encoding="utf-8"?>
<!-- Generator: Adobe Illustrator 15.1.0, SVG Export Plug-In . SVG Version: 6.00 Build 0)  -->
<!DOCTYPE svg PUBLIC "-//W3C//DTD SVG 1.1 Basic//EN" "http://www.w3.org/Graphics/SVG/1.1/DTD/svg11-basic.dtd">
<svg version="1.1" baseProfile="basic" id="Layer_1"
	 xmlns="http://www.w3.org/2000/svg" xmlns:xlink="http://www.w3.org/1999/xlink" x="0px" y="0px" width="451.015px" height="465px"
	 viewBox="0 0 451.015 465" xml:space="preserve">
<title>Drive Lockup - with gray Google</title>
<desc>Created with Sketch.</desc>
<g id="Drive-Lockup---with-gray-Google">
	<g id="Group-3">
		<g id="logo_drive_96in128dp" transform="translate(11.564472, 2.891791)">
			<g id="Group_7_" transform="translate(9.155207, 36.629353)">
				<g id="Clipped">
					<g>
						<g id="SVGID_1_">
						</g>
						<defs>
							
								<filter id="Adobe_OpacityMaskFilter" filterUnits="userSpaceOnUse" x="67.062" y="247.248" width="354.078" height="119.045">
								<feColorMatrix  type="matrix" values="1 0 0 0 0  0 1 0 0 0  0 0 1 0 0  0 0 0 1 0"/>
							</filter>
						</defs>
						<mask maskUnits="userSpaceOnUse" x="67.062" y="247.248" width="354.078" height="119.045" id="mask-2">
							<g filter="url(#Adobe_OpacityMaskFilter)">
								<path id="path-1" fill="#FFFFFF" d="M279.279,0H141.86L0,247.248l67.062,119.045h287.015l67.063-119.045L279.279,0z
									 M136.023,247.248l74.546-128.661l74.546,128.661H136.023z"/>
							</g>
						</mask>
						<g id="Group_1_" mask="url(#mask-2)">
							<g transform="translate(67.018979, 247.248134)">
								<polygon id="Shape" fill="#4285F4" points="0.043,0 0.043,119.045 287.058,119.045 354.121,0 								"/>
								
									<linearGradient id="Shape_13_" gradientUnits="userSpaceOnUse" x1="882.4323" y1="340.3606" x2="883.1859" y2="339.8867" gradientTransform="matrix(137.9461 0 0 -119.0454 -121693.125 40578)">
									<stop  offset="0" style="stop-color:#1A237E;stop-opacity:0.2"/>
									<stop  offset="1" style="stop-color:#1A237E;stop-opacity:0.02"/>
								</linearGradient>
								<polygon id="Shape_1_" fill="url(#Shape_13_)" points="69.005,0 137.989,119.045 0.043,119.045 								"/>
								<g id="Group">
									<polygon id="Shape_2_" fill="#FFFFFF" fill-opacity="0.2" points="67.677,2.289 350.207,2.289 350.207,2.289 354.121,0 
										69.005,0 69.005,0 									"/>
									<polygon id="Shape_3_" fill="#1A237E" fill-opacity="0.2" points="350.207,2.289 285.731,116.756 1.37,116.756 
										0.043,119.045 287.058,119.045 354.121,0 									"/>
									<polygon id="Shape_4_" fill="#1A237E" fill-opacity="0.05" points="70.332,2.289 69.005,0 0.043,119.045 2.675,119.045 
																			"/>
								</g>
							</g>
						</g>
					</g>
					<g>
						<g id="SVGID_2_">
						</g>
						<defs>
							<filter id="Adobe_OpacityMaskFilter_1_" filterUnits="userSpaceOnUse" x="0" y="0" width="228.857" height="366.293">
								<feColorMatrix  type="matrix" values="1 0 0 0 0  0 1 0 0 0  0 0 1 0 0  0 0 0 1 0"/>
							</filter>
						</defs>
						<mask maskUnits="userSpaceOnUse" x="0" y="0" width="228.857" height="366.293" id="mask-5">
							<g filter="url(#Adobe_OpacityMaskFilter_1_)">
								<path id="path-4" fill="#FFFFFF" d="M279.279,0H141.86L0,247.248l67.062,119.045h287.015l67.063-119.045L279.279,0z
									 M136.023,247.248l74.546-128.661l74.546,128.661H136.023z"/>
							</g>
						</mask>
						<g id="Group_2_" mask="url(#mask-5)">
							<polygon id="Shape_5_" fill="#0F9D58" points="141.86,0 0,247.248 67.062,366.293 228.857,87.017 							"/>
							<g id="Shape_6_">
								<polygon fill="#263238" fill-opacity="0.1" points="141.86,0 143.119,6.753 207.915,118.587 67.085,361.669 2.632,247.248 
									0,247.248 67.062,366.293 210.57,118.587 								"/>
								<polygon fill="#FFFFFF" fill-opacity="0.2" points="2.632,247.248 143.188,2.289 141.86,0 141.86,0 0,247.248 								"/>
							</g>
						</g>
					</g>
					<g>
						<g id="SVGID_3_">
						</g>
						<defs>
							<filter id="Adobe_OpacityMaskFilter_2_" filterUnits="userSpaceOnUse" x="141.86" y="0" width="279.28" height="247.249">
								<feColorMatrix  type="matrix" values="1 0 0 0 0  0 1 0 0 0  0 0 1 0 0  0 0 0 1 0"/>
							</filter>
						</defs>
						<mask maskUnits="userSpaceOnUse" x="141.86" y="0" width="279.28" height="247.249" id="mask-7">
							<g filter="url(#Adobe_OpacityMaskFilter_2_)">
								<path id="path-6" fill="#FFFFFF" d="M279.279,0H141.86L0,247.248l67.062,119.045h287.015l67.063-119.045L279.279,0z
									 M136.023,247.248l74.546-128.661l74.546,128.661H136.023z"/>
							</g>
						</mask>
						<g id="Group_4_" mask="url(#mask-7)">
							<g transform="translate(141.762664, 0.000000)">
								<polygon id="Shape_7_" fill="#FFCD40" points="137.517,0 0.097,0 143.354,247.248 279.377,247.248 								"/>
								<g id="Group_3_">
									<polygon id="Shape_8_" fill="#FFFFFF" fill-opacity="0.2" points="137.517,0 0.097,0 4.057,2.289 136.19,2.289 
										276.745,247.248 279.377,247.248 									"/>
									<polygon id="Shape_9_" fill="#BF360C" fill-opacity="0.1" points="144.658,244.959 4.057,2.289 4.057,2.289 0.097,0 
										143.354,247.248 									"/>
								</g>
							</g>
						</g>
					</g>
					<g>
						<g id="SVGID_4_">
						</g>
						<defs>
							
								<filter id="Adobe_OpacityMaskFilter_3_" filterUnits="userSpaceOnUse" x="-18.336" y="-18.298" width="284.044" height="421.387">
								<feColorMatrix  type="matrix" values="1 0 0 0 0  0 1 0 0 0  0 0 1 0 0  0 0 0 1 0"/>
							</filter>
						</defs>
						<mask maskUnits="userSpaceOnUse" x="-18.336" y="-18.298" width="284.044" height="421.387" id="mask-9">
							<g filter="url(#Adobe_OpacityMaskFilter_3_)">
								<path id="path-8" fill="#FFFFFF" d="M279.279,0H141.86L0,247.248l67.062,119.045h287.015l67.063-119.045L279.279,0z
									 M136.024,247.248l74.546-128.661l74.546,128.661H136.024z"/>
							</g>
						</mask>
						<g mask="url(#mask-9)">
							<g transform="translate(67.018979, 247.248134)">
								<g id="SVGID_5_">
								</g>
								<defs>
									
										<filter id="Adobe_OpacityMaskFilter_4_" filterUnits="userSpaceOnUse" x="-85.355" y="-265.546" width="284.044" height="421.387">
										<feColorMatrix  type="matrix" values="1 0 0 0 0  0 1 0 0 0  0 0 1 0 0  0 0 0 1 0"/>
									</filter>
								</defs>
								<mask maskUnits="userSpaceOnUse" x="-85.355" y="-265.546" width="284.044" height="421.387" id="mask-11">
									<g filter="url(#Adobe_OpacityMaskFilter_4_)">
										<polygon id="path-10" fill="#FFFFFF" points="0.043,119.045 287.058,119.045 354.121,0 69.005,0 										"/>
									</g>
								</mask>
								<g id="Group_5_" mask="url(#mask-11)">
									<g transform="translate(-85.543969, -265.562811)">
										<g transform="matrix(1 0 0 1 2.858364e-009 1.814298e-010)" opacity="0.2">
											
												<image overflow="visible" width="525" height="771" id="Bitmap" xlink:href="42A70EA3.png"  transform="matrix(0.541 0 0 0.5465 0.1891 0.0167)">
											</image>
										</g>
										<polygon id="Shape_10_" fill="#0F9D58" points="160.385,18.315 18.525,265.563 85.587,384.608 247.383,105.332 										
											"/>
									</g>
								</g>
							</g>
						</g>
					</g>
					<g>
						<g id="SVGID_6_">
						</g>
						<defs>
							
								<filter id="Adobe_OpacityMaskFilter_5_" filterUnits="userSpaceOnUse" x="114.389" y="-18.314" width="334.532" height="302.192">
								<feColorMatrix  type="matrix" values="1 0 0 0 0  0 1 0 0 0  0 0 1 0 0  0 0 0 1 0"/>
							</filter>
						</defs>
						<mask maskUnits="userSpaceOnUse" x="114.389" y="-18.314" width="334.532" height="302.192" id="mask-13">
							<g filter="url(#Adobe_OpacityMaskFilter_5_)">
								<path id="path-12" fill="#FFFFFF" d="M279.279,0H141.86L0,247.248l67.062,119.045h287.015l67.063-119.045L279.279,0z
									 M136.024,247.248l74.546-128.661l74.546,128.661H136.024z"/>
							</g>
						</mask>
						<g mask="url(#mask-13)">
							<g id="SVGID_7_">
							</g>
							<defs>
								
									<filter id="Adobe_OpacityMaskFilter_6_" filterUnits="userSpaceOnUse" x="114.389" y="-18.314" width="334.532" height="302.192">
									<feColorMatrix  type="matrix" values="1 0 0 0 0  0 1 0 0 0  0 0 1 0 0  0 0 0 1 0"/>
								</filter>
							</defs>
							<mask maskUnits="userSpaceOnUse" x="114.389" y="-18.314" width="334.532" height="302.192" id="mask-15">
								<g filter="url(#Adobe_OpacityMaskFilter_6_)">
									<polygon id="path-14" fill="#FFFFFF" points="141.86,0 0,247.248 67.062,366.293 210.57,118.587 									"/>
								</g>
							</mask>
							<g id="Group_6_" mask="url(#mask-15)">
								<g transform="translate(114.297042, -18.314677)">
									<g transform="matrix(1 0 0 1 4.006395e-010 3.939134e-011)" opacity="0.2">
										
											<image overflow="visible" width="617" height="550" id="Bitmap_2_" xlink:href="42A70EA1.png"  transform="matrix(0.5422 0 0 0.5494 0.0917 6.103516e-004)">
										</image>
									</g>
									<polygon id="Shape_11_" fill="#FFCD40" points="164.982,18.315 27.563,18.315 170.819,265.563 306.843,265.563 									
										"/>
								</g>
							</g>
						</g>
					</g>
				</g>
				
					<radialGradient id="Shape_14_" cx="953.9523" cy="589.0248" r="1.1451" gradientTransform="matrix(366.2937 0 0 -366.2935 -349283.8125 215759.2969)" gradientUnits="userSpaceOnUse">
					<stop  offset="0" style="stop-color:#FFFFFF;stop-opacity:0.1"/>
					<stop  offset="1" style="stop-color:#FFFFFF;stop-opacity:0"/>
				</radialGradient>
				<path id="Shape_12_" fill="url(#Shape_14_)" d="M279.279,0H141.86L0,247.248l67.062,119.045h287.015l67.063-119.045L279.279,0z
					 M136.024,247.248l74.546-128.661l74.546,128.661H136.024z"/>
			</g>
			<rect id="Rectangle-path" x="0" y="0" fill="none" width="439.45" height="439.553"/>
		</g>
		<rect id="Rectangle" fill="none" width="2565" height="465"/>
	</g>
</g>
</svg>
